<svg xmlns="http://www.w3.org/2000/svg" xmlns:xlink="http://www.w3.org/1999/xlink" width="274" zoomAndPan="magnify" viewBox="0 0 205.5 56.999997" height="76" preserveAspectRatio="xMidYMid meet" version="1.0"><defs><g/><clipPath id="3704216234"><path d="M 183 1 L 205 1 L 205 27 L 183 27 Z M 183 1 " clip-rule="nonzero"/></clipPath><clipPath id="59d9ffabcb"><path d="M 87 31 L 110 31 L 110 56.929688 L 87 56.929688 Z M 87 31 " clip-rule="nonzero"/></clipPath><clipPath id="6bedc9cbc9"><path d="M 113 31 L 133 31 L 133 56.929688 L 113 56.929688 Z M 113 31 " clip-rule="nonzero"/></clipPath><clipPath id="b4b8c96b5c"><path d="M 136 31 L 161 31 L 161 56.929688 L 136 56.929688 Z M 136 31 " clip-rule="nonzero"/></clipPath><clipPath id="1fb4e39d40"><path d="M 164 31 L 201 31 L 201 56.929688 L 164 56.929688 Z M 164 31 " clip-rule="nonzero"/></clipPath><clipPath id="7258ae65c8"><path d="M 9 38 L 21 38 L 21 50 L 9 50 Z M 9 38 " clip-rule="nonzero"/></clipPath><clipPath id="090454b383"><path d="M 7.203125 43.570312 L 15.304688 35.765625 L 23.109375 43.867188 L 15.007812 51.671875 Z M 7.203125 43.570312 " clip-rule="nonzero"/></clipPath><clipPath id="2a70346453"><path d="M 29 37 L 41 37 L 41 50 L 29 50 Z M 29 37 " clip-rule="nonzero"/></clipPath><clipPath id="abbbd3b7ab"><path d="M 26.878906 43.457031 L 34.980469 35.652344 L 42.785156 43.753906 L 34.683594 51.558594 Z M 26.878906 43.457031 " clip-rule="nonzero"/></clipPath><clipPath id="92453fa2d6"><path d="M 49 38 L 61 38 L 61 50 L 49 50 Z M 49 38 " clip-rule="nonzero"/></clipPath><clipPath id="f9c09bf394"><path d="M 47.132812 43.570312 L 55.234375 35.765625 L 63.039062 43.867188 L 54.9375 51.671875 Z M 47.132812 43.570312 " clip-rule="nonzero"/></clipPath><clipPath id="0849730dfd"><path d="M 66 28 L 71 28 L 71 56.929688 L 66 56.929688 Z M 66 28 " clip-rule="nonzero"/></clipPath></defs><g fill="#ffffff" fill-opacity="1"><g transform="translate(-1.361439, 26.154983)"><g><path d="M 16.277344 -14.800781 L 9.25 -14.800781 C 8.027344 -14.800781 7.03125 -15.796875 7.03125 -17.019531 C 7.03125 -18.238281 8.027344 -19.238281 9.25 -19.238281 L 17.351562 -19.238281 C 18.164062 -18.980469 18.722656 -18.238281 18.722656 -17.351562 L 23.789062 -17.351562 C 23.789062 -18.019531 23.714844 -18.648438 23.53125 -19.238281 C 22.714844 -22.234375 19.980469 -24.417969 16.722656 -24.417969 L 9.25 -24.417969 C 6.585938 -24.417969 4.105469 -23.011719 2.8125 -20.679688 C 2.183594 -19.570312 1.851562 -18.3125 1.851562 -17.019531 C 1.851562 -15.722656 2.183594 -14.464844 2.8125 -13.355469 C 3.109375 -12.839844 3.441406 -12.394531 3.8125 -11.988281 C 5.214844 -10.507812 7.175781 -9.621094 9.25 -9.621094 L 16.277344 -9.621094 C 17.5 -9.621094 18.460938 -8.621094 18.460938 -7.398438 C 18.460938 -6.179688 17.5 -5.179688 16.277344 -5.179688 L 8.25 -5.179688 C 7.472656 -5.4375 6.917969 -6.179688 6.917969 -7.066406 L 1.851562 -7.066406 C 1.851562 -6.402344 1.925781 -5.773438 2.070312 -5.179688 C 2.921875 -2.183594 5.660156 0 8.917969 0 L 16.277344 0 C 18.90625 0 21.382812 -1.40625 22.679688 -3.699219 C 23.34375 -4.847656 23.679688 -6.105469 23.679688 -7.398438 C 23.679688 -8.695312 23.34375 -9.953125 22.679688 -11.0625 C 21.382812 -13.355469 18.90625 -14.800781 16.277344 -14.800781 Z M 16.277344 -14.800781 "/></g></g></g><g fill="#ffffff" fill-opacity="1"><g transform="translate(24.313825, 26.154983)"><g><path d="M 1.851562 -24.417969 L 1.851562 -19.238281 L 23.679688 -19.238281 L 23.679688 -24.417969 Z M 7.03125 -10.433594 L 21.496094 -10.433594 L 21.496094 -15.613281 L 7.03125 -15.613281 L 1.851562 -15.648438 L 1.851562 0 L 23.679688 0 L 23.679688 -5.179688 L 7.03125 -5.179688 Z M 7.03125 -10.433594 "/></g></g></g><g fill="#ffffff" fill-opacity="1"><g transform="translate(49.841105, 26.154983)"><g><path d="M 25.269531 -1.480469 L 23.199219 -3.550781 C 23.382812 -3.738281 23.53125 -3.882812 23.679688 -4.070312 C 25.640625 -6.328125 26.710938 -9.25 26.710938 -12.246094 C 26.710938 -15.539062 25.417969 -18.683594 23.085938 -21.015625 C 20.71875 -23.382812 17.609375 -24.675781 14.28125 -24.675781 C 10.953125 -24.675781 7.84375 -23.382812 5.476562 -21.015625 C 3.144531 -18.683594 1.851562 -15.539062 1.851562 -12.246094 C 1.851562 -8.917969 3.144531 -5.773438 5.476562 -3.441406 C 6.84375 -2.070312 9.324219 -0.628906 11.394531 0 L 26.75 0 Z M 19.832031 -7.695312 C 19.535156 -7.324219 19.164062 -6.992188 18.792969 -6.695312 C 18.425781 -6.363281 18.019531 -6.105469 17.574219 -5.882812 C 17.09375 -5.625 16.613281 -5.4375 16.09375 -5.289062 C 15.5 -5.144531 14.910156 -5.070312 14.28125 -5.070312 C 10.324219 -5.070312 7.105469 -8.289062 7.105469 -12.246094 C 7.105469 -16.167969 10.324219 -19.386719 14.28125 -19.386719 C 18.238281 -19.386719 21.457031 -16.167969 21.457031 -12.246094 C 21.457031 -10.582031 20.867188 -8.992188 19.832031 -7.695312 Z M 19.832031 -7.695312 "/></g></g></g><g fill="#ffffff" fill-opacity="1"><g transform="translate(78.476062, 26.154983)"><g><path d="M 18.648438 -24.417969 L 18.648438 -11.023438 C 18.648438 -7.878906 16.132812 -5.253906 13.058594 -5.179688 C 12.984375 -5.179688 12.914062 -5.179688 12.839844 -5.179688 C 12.765625 -5.179688 12.691406 -5.179688 12.617188 -5.179688 C 9.546875 -5.253906 7.03125 -7.917969 7.03125 -11.023438 L 7.03125 -24.417969 L 1.851562 -24.417969 L 1.851562 -9.175781 C 1.851562 -7.175781 2.554688 -5.328125 3.847656 -3.921875 C 4.367188 -3.367188 4.882812 -2.886719 5.476562 -2.441406 C 7.585938 -0.851562 10.136719 0 12.839844 0 C 15.539062 0 18.054688 -0.851562 20.199219 -2.441406 C 20.792969 -2.886719 21.3125 -3.367188 21.792969 -3.882812 C 23.125 -5.289062 23.828125 -7.175781 23.828125 -9.136719 L 23.828125 -24.417969 Z M 18.648438 -24.417969 "/></g></g></g><g fill="#ffffff" fill-opacity="1"><g transform="translate(104.188324, 26.154983)"><g><path d="M 1.851562 -24.417969 L 1.851562 -19.238281 L 23.679688 -19.238281 L 23.679688 -24.417969 Z M 7.03125 -10.433594 L 21.496094 -10.433594 L 21.496094 -15.613281 L 7.03125 -15.613281 L 1.851562 -15.648438 L 1.851562 0 L 23.679688 0 L 23.679688 -5.179688 L 7.03125 -5.179688 Z M 7.03125 -10.433594 "/></g></g></g><g fill="#ffffff" fill-opacity="1"><g transform="translate(129.715604, 26.154983)"><g><path d="M 1.851562 0 L 7.03125 0 L 7.03125 -8.25 L 1.851562 -13.429688 Z M 16.464844 -24.457031 L 16.464844 -11.285156 L 3.109375 -24.601562 L 1.851562 -24.601562 L 1.851562 -18.535156 L 20.386719 0 L 21.644531 0 L 21.644531 -24.457031 Z M 16.464844 -24.457031 "/></g></g></g><g fill="#ffffff" fill-opacity="1"><g transform="translate(153.208102, 26.154983)"><g><path d="M 20.71875 -9.730469 L 20.460938 -9.175781 C 19.277344 -6.734375 16.796875 -5.179688 14.097656 -5.179688 C 10.765625 -5.179688 7.84375 -7.546875 7.175781 -10.804688 C 7.066406 -11.246094 7.03125 -11.765625 7.03125 -12.246094 C 7.03125 -12.726562 7.066406 -13.171875 7.175781 -13.652344 C 7.804688 -16.945312 10.730469 -19.3125 14.097656 -19.3125 C 16.945312 -19.3125 19.496094 -17.609375 20.609375 -15.019531 L 20.867188 -14.429688 L 26.230469 -14.429688 L 25.859375 -15.648438 C 25.160156 -18.164062 23.605469 -20.421875 21.53125 -22.011719 C 19.386719 -23.640625 16.796875 -24.492188 14.097656 -24.492188 C 11.136719 -24.492188 8.25 -23.417969 6.03125 -21.457031 C 3.8125 -19.535156 2.367188 -16.871094 1.960938 -13.984375 C 1.886719 -13.394531 1.851562 -12.839844 1.851562 -12.246094 C 1.851562 -11.652344 1.886719 -11.023438 1.960938 -10.433594 C 2.367188 -7.546875 3.847656 -4.921875 6.03125 -2.996094 C 8.289062 -1.035156 11.136719 0 14.097656 0 C 16.722656 0 19.238281 -0.8125 21.382812 -2.367188 C 23.457031 -3.921875 24.972656 -5.992188 25.75 -8.433594 L 26.15625 -9.730469 Z M 20.71875 -9.730469 "/></g></g></g><g clip-path="url(#3704216234)"><g fill="#ffffff" fill-opacity="1"><g transform="translate(181.325111, 26.154983)"><g><path d="M 1.851562 -24.417969 L 1.851562 -19.238281 L 23.679688 -19.238281 L 23.679688 -24.417969 Z M 7.03125 -10.433594 L 21.496094 -10.433594 L 21.496094 -15.613281 L 7.03125 -15.613281 L 1.851562 -15.648438 L 1.851562 0 L 23.679688 0 L 23.679688 -5.179688 L 7.03125 -5.179688 Z M 7.03125 -10.433594 "/></g></g></g></g><g clip-path="url(#59d9ffabcb)"><g fill="#ffffff" fill-opacity="1"><g transform="translate(85.78272, 56.107311)"><g><path d="M 1.851562 -14.652344 L 1.851562 0 L 7.03125 0 L 7.03125 -10.433594 L 21.496094 -10.433594 L 21.496094 -15.613281 L 1.851562 -15.613281 Z M 23.679688 -19.238281 L 23.679688 -24.417969 L 1.851562 -24.417969 L 1.851562 -19.238281 Z M 23.679688 -19.238281 "/></g></g></g></g><g clip-path="url(#6bedc9cbc9)"><g fill="#ffffff" fill-opacity="1"><g transform="translate(111.31, 56.107311)"><g><path d="M 7.03125 -5.179688 L 7.03125 -24.601562 L 1.851562 -24.601562 L 1.851562 0 L 21.273438 0 L 21.273438 -5.179688 Z M 7.03125 -5.179688 "/></g></g></g></g><g clip-path="url(#b4b8c96b5c)"><g fill="#ffffff" fill-opacity="1"><g transform="translate(134.469532, 56.107311)"><g><path d="M 14.023438 -24.34375 C 7.289062 -24.34375 1.851562 -18.867188 1.851562 -12.171875 C 1.851562 -5.4375 7.289062 0 14.023438 0 C 20.71875 0 26.195312 -5.4375 26.195312 -12.171875 C 26.195312 -18.867188 20.71875 -24.34375 14.023438 -24.34375 Z M 21.089844 -12.171875 C 21.089844 -8.25 17.90625 -5.070312 14.023438 -5.070312 C 10.101562 -5.070312 6.917969 -8.25 6.917969 -12.171875 C 6.917969 -16.058594 10.101562 -19.238281 14.023438 -19.238281 C 17.90625 -19.238281 21.089844 -16.058594 21.089844 -12.171875 Z M 21.089844 -12.171875 "/></g></g></g></g><g clip-path="url(#1fb4e39d40)"><g fill="#ffffff" fill-opacity="1"><g transform="translate(162.549542, 56.107311)"><g><path d="M 32.078125 -24.417969 L 31.816406 -23.863281 L 26.269531 -11.507812 L 22.457031 -19.90625 L 20.679688 -23.863281 L 20.421875 -24.417969 L 19.164062 -24.417969 L 18.90625 -23.863281 L 17.128906 -19.90625 L 13.355469 -11.507812 L 7.769531 -23.863281 L 7.511719 -24.417969 L 1.851562 -24.417969 L 2.441406 -23.050781 L 12.726562 0 L 13.835938 0 L 19.792969 -13.171875 L 25.675781 0 L 26.824219 0 L 28.933594 -4.773438 L 37.144531 -23.050781 L 37.773438 -24.417969 Z M 32.078125 -24.417969 "/></g></g></g></g><g clip-path="url(#7258ae65c8)"><g clip-path="url(#090454b383)"><path fill="#5d4194" d="M 11.253906 39.667969 C 9.015625 41.824219 8.949219 45.386719 11.105469 47.621094 C 13.257812 49.859375 16.820312 49.925781 19.058594 47.769531 C 21.296875 45.617188 21.363281 42.054688 19.207031 39.816406 C 17.050781 37.578125 13.488281 37.511719 11.253906 39.667969 " fill-opacity="1" fill-rule="nonzero"/></g></g><g clip-path="url(#2a70346453)"><g clip-path="url(#abbbd3b7ab)"><path fill="#861eff" d="M 30.929688 39.554688 C 28.691406 41.710938 28.625 45.269531 30.78125 47.507812 C 32.9375 49.746094 36.5 49.8125 38.734375 47.65625 C 40.972656 45.5 41.039062 41.941406 38.882812 39.703125 C 36.726562 37.464844 33.167969 37.398438 30.929688 39.554688 " fill-opacity="1" fill-rule="nonzero"/></g></g><g clip-path="url(#92453fa2d6)"><g clip-path="url(#f9c09bf394)"><path fill="#c11ec9" d="M 51.183594 39.667969 C 48.945312 41.824219 48.878906 45.386719 51.035156 47.621094 C 53.191406 49.859375 56.75 49.925781 58.988281 47.769531 C 61.226562 45.617188 61.292969 42.054688 59.136719 39.816406 C 56.980469 37.578125 53.417969 37.511719 51.183594 39.667969 " fill-opacity="1" fill-rule="nonzero"/></g></g><g clip-path="url(#0849730dfd)"><path stroke-linecap="butt" transform="matrix(0.000000000000000279, -4.562649, 4.5, 0.000000000000000276, 68.258892, 55.812322)" fill="none" stroke-linejoin="miter" d="M -0.0000390496 -0.000239782 L 5.425297 -0.000239782 " stroke="#5d4194" stroke-width="1" stroke-opacity="1" stroke-miterlimit="4"/></g></svg>